<svg xmlns="http://www.w3.org/2000/svg" width="48" height="48" viewBox="0 0 48 48">
  <defs>
    <linearGradient id="g" x1="0" y1="0" x2="48" y2="48" gradientUnits="userSpaceOnUse">
      <stop offset="0%" stop-color="#6366f1"/>
      <stop offset="100%" stop-color="#4f46e5"/>
    </linearGradient>
  </defs>
  <rect width="48" height="48" rx="12" fill="url(#g)"/>
  <path d="M32 16.5C32 14.015 29.538 12 26.5 12H20c-3.038 0-5.5 2.015-5.5 4.5S16.962 21 20 21h8c3.038 0 5.5 2.015 5.5 4.5S31.038 30 28 30h-7.5c-3.038 0-5.5-2.015-5.5-4.5" stroke="white" stroke-width="2.5" stroke-linecap="round" fill="none"/>
  <path d="M24 9v3M24 30v3" stroke="white" stroke-width="2.5" stroke-linecap="round"/>
  <path d="M12 36l3-3M33 36l3-3" stroke="white" stroke-width="2" stroke-linecap="round" opacity="0.5"/>
  <path d="M14 39h20" stroke="white" stroke-width="2" stroke-linecap="round" opacity="0.3"/>
</svg>
